<?xml version="1.0" standalone="no"?>
<!DOCTYPE svg PUBLIC "-//W3C//DTD SVG 20010904//EN"
 "http://www.w3.org/TR/2001/REC-SVG-20010904/DTD/svg10.dtd">
<svg version="1.0" xmlns="http://www.w3.org/2000/svg"
 width="1024.000000pt" height="1024.000000pt" viewBox="0 0 1024.000000 1024.000000"
 preserveAspectRatio="xMidYMid meet">

<g transform="translate(0.000000,1024.000000) scale(0.100000,-0.100000)"
fill="#000000" stroke="none">
<path d="M5083 6893 c15 -2 39 -2 55 0 15 2 2 4 -28 4 -30 0 -43 -2 -27 -4z"/>
<path d="M4953 6883 c9 -2 23 -2 30 0 6 3 -1 5 -18 5 -16 0 -22 -2 -12 -5z"/>
<path d="M5233 6883 c9 -2 25 -2 35 0 9 3 1 5 -18 5 -19 0 -27 -2 -17 -5z"/>
<path d="M4878 6873 c6 -2 18 -2 25 0 6 3 1 5 -13 5 -14 0 -19 -2 -12 -5z"/>
<path d="M5318 6873 c7 -3 16 -2 19 1 4 3 -2 6 -13 5 -11 0 -14 -3 -6 -6z"/>
<path d="M5368 6863 c6 -2 18 -2 25 0 6 3 1 5 -13 5 -14 0 -19 -2 -12 -5z"/>
<path d="M4957 6813 c-24 -4 -28 -9 -25 -31 2 -19 9 -27 23 -27 17 0 20 -8 23
-50 4 -85 9 -95 44 -95 l31 0 -6 75 c-5 69 -4 75 14 75 14 0 19 7 19 30 0 29
-1 30 -47 29 -27 -1 -61 -4 -76 -6z m111 -21 c2 -8 -6 -16 -18 -19 -22 -6 -22
-9 -16 -79 6 -69 5 -74 -12 -74 -21 0 -32 39 -32 113 0 33 -3 37 -25 37 -15 0
-25 6 -25 14 0 25 120 32 128 8z"/>
<path d="M5107 6813 c-4 -3 -7 -51 -7 -105 l0 -98 35 0 35 0 0 105 0 105 -28
0 c-16 0 -32 -3 -35 -7z m53 -93 c0 -73 -3 -92 -16 -97 -28 -10 -33 11 -27
100 5 76 8 87 24 87 17 0 19 -9 19 -90z"/>
<path d="M4526 6766 c-49 -25 -94 -50 -100 -57 -6 -7 14 2 44 19 30 17 80 42
110 55 30 14 50 26 45 26 -6 1 -51 -19 -99 -43z"/>
<path d="M5233 6783 c-39 -36 -49 -80 -29 -126 17 -42 64 -70 109 -65 29 3 32
7 35 39 3 35 2 36 -28 31 -57 -8 -82 43 -35 74 23 15 27 15 50 0 24 -16 24
-15 31 20 3 19 4 38 0 41 -3 3 -27 8 -54 11 -42 4 -51 1 -79 -25z m101 11 c9
-3 16 -15 16 -25 0 -15 -5 -17 -30 -12 -38 7 -70 -19 -70 -58 0 -32 31 -59 67
-59 31 0 30 -28 -1 -36 -28 -7 -81 18 -96 45 -15 29 -12 83 6 109 24 35 71 50
108 36z"/>
<path d="M5600 6800 c8 -5 20 -10 25 -10 6 0 3 5 -5 10 -8 5 -19 10 -25 10 -5
0 -3 -5 5 -10z"/>
<path d="M4803 6783 c-13 -2 -23 -10 -23 -16 -1 -24 -29 -199 -33 -204 -3 -2
-20 5 -38 16 -28 17 -33 26 -34 60 -1 21 -7 46 -14 55 -18 22 -74 20 -121 -4
-40 -20 -40 -20 -26 -53 27 -62 68 -152 71 -155 1 -1 15 2 30 8 23 9 26 14 21
36 -6 24 -6 24 17 10 21 -14 29 -13 92 9 45 15 72 31 76 43 9 25 53 34 72 15
10 -10 23 -12 45 -6 l32 8 -62 93 c-33 50 -66 91 -72 91 -6 -1 -21 -4 -33 -6z
m94 -93 c43 -65 49 -79 35 -83 -9 -2 -25 3 -34 11 -22 18 -79 7 -85 -18 -5
-18 -31 -35 -41 -26 -5 5 18 176 25 189 2 4 14 7 26 7 16 0 36 -21 74 -80z
m-240 -20 c10 -20 10 -29 -2 -47 -14 -22 -13 -23 26 -44 32 -16 39 -23 28 -30
-22 -14 -37 -11 -69 13 -33 24 -47 20 -31 -10 15 -29 14 -52 -4 -52 -12 0 -85
137 -85 160 0 13 73 40 100 37 15 -1 29 -12 37 -27z"/>
<path d="M4820 6685 c0 -27 4 -35 18 -35 29 0 32 9 14 41 -22 38 -32 37 -32
-6z"/>
<path d="M4570 6647 c0 -7 6 -21 13 -31 12 -16 14 -16 31 3 10 11 15 25 11 30
-9 16 -55 14 -55 -2z m40 -12 c0 -8 -4 -15 -10 -15 -5 0 -10 7 -10 15 0 8 5
15 10 15 6 0 10 -7 10 -15z"/>
<path d="M5689 6760 c30 -17 56 -29 58 -27 4 5 -92 57 -103 57 -5 0 15 -14 45
-30z"/>
<path d="M5430 6684 c-36 -42 -66 -82 -68 -89 -4 -17 44 -28 65 -14 25 15 73
-4 73 -30 0 -16 24 -30 53 -31 4 0 7 49 7 109 l0 109 -31 11 c-18 6 -33 11
-33 11 -1 0 -31 -34 -66 -76z m104 50 c13 -5 16 -24 16 -105 0 -85 -2 -98 -16
-92 -8 3 -19 16 -24 29 -10 26 -72 43 -93 26 -7 -6 -18 -7 -26 -2 -11 6 0 25
45 79 57 70 67 77 98 65z"/>
<path d="M5481 6666 c-25 -27 -21 -46 10 -46 15 0 19 7 19 35 0 19 -1 35 -3
35 -2 0 -14 -11 -26 -24z"/>
<path d="M5760 6726 c0 -3 9 -10 20 -16 11 -6 20 -8 20 -6 0 3 -9 10 -20 16
-11 6 -20 8 -20 6z"/>
<path d="M5830 6686 c0 -3 26 -23 58 -44 31 -22 91 -70 132 -107 l75 -67 -74
72 c-66 64 -191 159 -191 146z"/>
<path d="M4255 6592 c-103 -86 -221 -219 -281 -317 -28 -46 -13 -29 70 82 68
91 109 133 256 262 61 53 28 33 -45 -27z"/>
<path d="M4384 6596 c-28 -28 -34 -42 -34 -76 0 -35 6 -48 35 -77 33 -33 39
-35 81 -30 31 3 55 13 72 30 l25 25 -23 32 -23 32 -14 -26 c-23 -44 -83 -30
-83 20 0 28 24 48 50 41 25 -6 25 -2 -1 34 -26 38 -43 37 -85 -5z m67 -13
c-22 -9 -51 -42 -51 -58 0 -20 45 -65 65 -65 8 0 24 9 34 19 17 17 21 18 32 5
20 -25 -21 -59 -72 -59 -34 0 -46 6 -70 33 -41 45 -39 84 7 130 33 33 36 34
52 17 14 -14 14 -18 3 -22z"/>
<path d="M5727 6580 c-38 -30 -52 -80 -34 -122 28 -66 77 -89 107 -51 26 33
25 43 -3 43 -47 0 -62 43 -27 75 17 15 24 16 45 7 16 -7 25 -20 25 -34 1 -23
1 -22 25 5 32 36 31 51 -1 76 -35 28 -102 28 -137 1z m127 -11 c21 -16 24 -24
16 -39 -10 -19 -11 -19 -30 0 -24 24 -57 26 -82 3 -27 -24 -23 -68 9 -91 15
-11 23 -24 19 -30 -11 -19 -25 -14 -57 17 -83 84 32 213 125 140z"/>
<path d="M5078 6573 c23 -2 59 -2 80 0 20 2 1 4 -43 4 -44 0 -61 -2 -37 -4z"/>
<path d="M4963 6563 c9 -2 25 -2 35 0 9 3 1 5 -18 5 -19 0 -27 -2 -17 -5z"/>
<path d="M5228 6563 c6 -2 18 -2 25 0 6 3 1 5 -13 5 -14 0 -19 -2 -12 -5z"/>
<path d="M4908 6553 c6 -2 18 -2 25 0 6 3 1 5 -13 5 -14 0 -19 -2 -12 -5z"/>
<path d="M5288 6553 c7 -3 16 -2 19 1 4 3 -2 6 -13 5 -11 0 -14 -3 -6 -6z"/>
<path d="M4868 6543 c7 -3 16 -2 19 1 4 3 -2 6 -13 5 -11 0 -14 -3 -6 -6z"/>
<path d="M5866 6445 c-36 -42 -66 -80 -66 -84 0 -4 9 -16 21 -27 21 -19 21
-18 70 36 27 30 58 67 69 81 19 26 19 26 -4 48 l-23 22 -67 -76z m87 21 c-14
-24 -108 -126 -116 -126 -4 0 -10 7 -13 15 -4 9 16 40 51 80 46 51 61 63 71
54 8 -6 11 -16 7 -23z"/>
<path d="M5100 6465 c0 -13 -4 -14 -22 -4 -18 10 -20 9 -15 -4 4 -12 1 -15
-11 -11 -14 5 -13 3 2 -10 22 -18 40 -21 31 -6 -3 6 1 10 9 10 9 0 16 7 16 15
0 8 7 15 16 15 10 0 14 -6 10 -15 -3 -8 -1 -15 5 -15 14 0 39 -26 39 -39 0
-13 10 -14 30 -1 13 8 12 10 -3 10 -14 0 -17 5 -12 21 5 15 4 19 -4 15 -6 -4
-11 0 -11 10 0 13 -3 14 -14 5 -10 -9 -15 -8 -20 4 -7 20 -46 20 -46 0z"/>
<path d="M4198 6447 c-75 -64 -61 -168 28 -197 124 -41 209 129 102 204 -34
24 -98 20 -130 -7z m121 -3 c13 -9 29 -32 37 -50 27 -64 -24 -134 -97 -134
-47 0 -86 31 -95 74 -16 86 86 158 155 110z"/>
<path d="M4221 6394 c-26 -33 -26 -49 -1 -74 40 -40 100 -16 100 39 0 58 -63
80 -99 35z m84 -15 c15 -46 -24 -81 -65 -59 -20 11 -26 45 -12 66 18 28 68 23
77 -7z"/>
<path d="M4874 6450 c0 -11 6 -20 13 -20 11 0 11 5 3 20 -6 11 -12 20 -13 20
-2 0 -3 -9 -3 -20z"/>
<path d="M5360 6455 c0 -13 -4 -14 -22 -4 -18 10 -20 9 -14 -6 6 -16 4 -16
-10 -4 -16 13 -17 11 -10 -13 5 -24 3 -28 -14 -28 -24 0 -28 -38 -5 -46 10 -4
13 -13 9 -26 -5 -17 -2 -19 32 -12 39 7 40 1 6 -39 -15 -16 -14 -17 2 -11 10
4 22 17 27 31 8 23 10 23 44 9 34 -15 35 -14 35 7 0 16 -3 18 -9 9 -7 -12 -12
-12 -30 -1 -11 8 -21 19 -21 26 0 17 -10 16 -24 -1 -6 -8 -21 -17 -34 -21 -20
-6 -21 -4 -12 21 9 24 8 26 -10 21 -13 -3 -20 0 -20 10 0 10 6 12 20 8 16 -5
20 -2 20 15 0 12 5 18 10 15 6 -3 10 -1 10 4 0 6 7 11 15 11 8 0 15 9 15 20 0
11 -2 20 -5 20 -3 0 -5 -7 -5 -15z"/>
<path d="M4564 6421 c-34 -21 -64 -43 -68 -49 -5 -9 117 68 132 82 13 14 -7 3
-64 -33z"/>
<path d="M4910 6460 c-1 -3 -3 -15 -4 -28 -2 -16 2 -21 11 -18 8 3 13 -2 13
-13 0 -15 5 -18 23 -13 19 5 20 7 4 10 -14 3 -18 10 -14 28 3 19 1 22 -9 14
-9 -8 -14 -6 -17 7 -3 10 -6 16 -7 13z"/>
<path d="M5604 6448 c10 -7 52 -36 92 -65 41 -29 74 -50 74 -48 0 8 -123 96
-155 111 -18 9 -22 9 -11 2z"/>
<path d="M6100 6456 c0 -2 8 -10 18 -17 15 -13 16 -12 3 4 -13 16 -21 21 -21
13z"/>
<path d="M4803 6435 c-6 -7 -7 -18 -2 -27 6 -12 3 -17 -11 -21 -26 -7 -26 -37
1 -44 16 -4 19 -11 15 -29 -8 -29 -6 -29 39 -4 33 19 35 19 35 1 0 -18 29 -51
46 -51 4 0 -2 7 -14 16 -22 15 -30 44 -12 44 6 0 1 9 -10 20 -22 22 -31 25
-27 9 1 -6 -8 -18 -20 -26 -22 -15 -23 -14 -23 10 0 21 -4 24 -21 20 -16 -4
-20 -2 -17 8 3 8 12 13 22 11 9 -2 16 4 16 13 0 8 3 15 8 15 4 0 13 9 19 19
10 16 9 19 -11 23 -12 3 -27 -1 -33 -7z"/>
<path d="M5385 6433 c-2 -7 0 -13 6 -13 6 0 17 -6 25 -14 8 -8 14 -19 14 -25
0 -6 6 -8 14 -5 9 4 16 -3 19 -18 l4 -23 2 23 c0 12 -6 25 -14 28 -10 4 -13
13 -10 25 4 11 2 19 -5 19 -6 0 -9 4 -6 9 3 5 -5 8 -19 7 -14 0 -27 -7 -30
-13z"/>
<path d="M5955 6358 c-50 -101 -52 -110 -30 -128 13 -11 34 -7 118 20 56 18
104 34 106 36 3 2 -6 15 -18 28 -22 24 -25 24 -69 11 -25 -8 -48 -13 -50 -11
-2 2 6 23 18 46 20 39 20 43 5 66 -8 13 -20 24 -26 24 -5 0 -30 -41 -54 -92z
m72 56 c3 -9 -6 -41 -20 -70 -15 -30 -27 -56 -27 -59 0 -2 27 6 60 18 55 20
61 21 76 5 16 -15 12 -18 -57 -38 -40 -12 -83 -26 -95 -31 -46 -17 -46 12 -2
104 42 88 53 100 65 71z"/>
<path d="M6162 6380 c19 -25 51 -70 71 -100 20 -30 37 -51 37 -47 0 12 -74
117 -110 157 -31 34 -31 34 2 -10z"/>
<path d="M5027 6403 c-13 -12 -7 -32 13 -43 16 -8 20 -8 20 4 0 10 -6 13 -15
10 -10 -4 -15 0 -15 11 0 11 5 15 15 11 8 -3 15 -1 15 4 0 11 -23 13 -33 3z"/>
<path d="M5368 6403 c7 -3 16 -2 19 1 4 3 -2 6 -13 5 -11 0 -14 -3 -6 -6z"/>
<path d="M4625 6368 c17 -14 42 -28 55 -30 20 -2 24 -8 22 -28 -2 -13 -10 -29
-17 -35 -11 -8 -9 -14 13 -29 15 -11 21 -13 15 -6 -18 20 -16 40 5 40 10 0 13
3 6 8 -6 4 -11 18 -10 32 1 19 -5 26 -21 28 -13 2 -23 7 -23 12 0 4 -8 10 -17
13 -10 2 -27 8 -38 13 -13 5 -10 -1 10 -18z"/>
<path d="M5603 6376 c-13 -6 -23 -14 -23 -18 0 -5 -11 -8 -24 -8 -20 0 -25 -6
-28 -35 -3 -24 0 -35 9 -35 19 0 16 -14 -6 -34 -17 -15 -20 -15 -34 -1 -9 8
-21 15 -28 15 -6 0 0 -9 14 -20 31 -25 32 -25 57 2 11 12 20 17 20 11 0 -14
-28 -43 -40 -43 -5 0 -7 -7 -4 -15 4 -9 0 -15 -10 -15 -19 0 -21 -11 -4 -28 9
-9 8 -15 -7 -25 -14 -11 -15 -16 -5 -22 16 -10 31 13 28 41 -2 12 13 44 32 70
55 78 63 85 72 71 5 -8 8 -4 8 11 0 14 11 29 30 41 30 18 30 31 1 31 -14 0
-14 -2 -1 -10 9 -6 10 -10 3 -10 -6 0 -32 -20 -56 -45 -48 -47 -54 -46 -64 14
-3 19 -1 23 16 18 13 -3 28 4 43 20 21 22 23 23 29 6 7 -15 8 -15 8 5 1 24 -3
25 -36 8z"/>
<path d="M4965 6369 c-4 -6 -13 -8 -21 -5 -9 4 -13 -3 -11 -24 1 -17 8 -30 15
-30 9 0 10 5 4 17 -7 12 -4 21 12 34 11 10 18 18 14 19 -4 0 -10 -5 -13 -11z"/>
<path d="M4555 6361 c-3 -5 3 -12 12 -15 25 -8 73 -51 73 -65 0 -6 5 -11 11
-11 20 0 3 25 -39 57 -38 29 -40 32 -19 36 19 4 18 4 -5 6 -15 0 -29 -3 -33
-8z"/>
<path d="M5180 6361 c0 -5 9 -7 20 -4 11 3 20 7 20 9 0 2 -9 4 -20 4 -11 0
-20 -4 -20 -9z"/>
<path d="M5102 6348 c-6 -6 -21 -12 -34 -13 -12 -1 -24 -7 -26 -13 -3 -9 3
-10 23 -2 35 13 35 14 35 -15 0 -19 -7 -26 -32 -34 -18 -5 -25 -10 -15 -10 34
-2 57 18 57 49 0 16 5 32 10 35 6 4 10 -8 10 -29 0 -19 4 -37 8 -40 10 -6 8
56 -2 73 -9 14 -19 14 -34 -1z"/>
<path d="M5425 6350 c-3 -5 1 -10 10 -10 9 0 13 5 10 10 -3 6 -8 10 -10 10 -2
0 -7 -4 -10 -10z"/>
<path d="M5160 6326 c0 -2 9 -6 20 -9 11 -3 20 -1 20 4 0 5 -9 9 -20 9 -11 0
-20 -2 -20 -4z"/>
<path d="M4379 6273 c-24 -27 -53 -59 -64 -73 -10 -14 3 -2 29 25 76 80 90 95
85 95 -3 0 -25 -21 -50 -47z"/>
<path d="M4977 6294 c-10 -13 -13 -24 -7 -24 5 0 10 5 10 11 0 7 9 9 21 6 17
-5 18 -3 7 11 -7 9 -12 18 -13 19 0 0 -8 -10 -18 -23z"/>
<path d="M5247 6314 c-7 -7 38 -54 51 -54 4 0 0 6 -9 13 -8 7 -20 20 -25 30
-6 10 -13 15 -17 11z"/>
<path d="M5859 6243 c35 -40 66 -73 68 -73 8 0 -72 92 -103 120 -15 14 1 -8
35 -47z"/>
<path d="M4841 6270 c-13 -11 -19 -20 -13 -20 10 0 42 27 42 36 0 7 -4 5 -29
-16z"/>
<path d="M5220 6280 c-9 -6 -10 -10 -3 -10 6 0 15 5 18 10 8 12 4 12 -15 0z"/>
<path d="M5380 6284 c0 -17 27 -37 42 -31 8 4 7 6 -4 6 -9 1 -22 9 -27 19 -6
9 -11 12 -11 6z"/>
<path d="M4064 6272 c-15 -10 -64 -85 -64 -97 0 -8 102 -79 157 -109 7 -4 19
4 29 19 16 24 15 26 -6 43 -21 17 -22 22 -11 55 14 40 4 69 -29 87 -22 12 -60
13 -76 2z m75 -18 c23 -17 25 -42 6 -101 -5 -16 -2 -23 14 -28 22 -7 28 -29
11 -40 -6 -4 -44 15 -85 41 l-75 47 16 26 c45 71 71 84 113 55z"/>
<path d="M4069 6214 c-11 -14 -10 -19 11 -36 24 -20 24 -20 33 1 19 41 -16 69
-44 35z m39 -15 c-2 -6 -8 -10 -13 -10 -5 0 -11 4 -13 10 -2 6 4 11 13 11 9 0
15 -5 13 -11z"/>
<path d="M5100 6255 c-7 -8 -9 -15 -6 -15 4 0 14 7 22 15 9 8 11 15 6 15 -5 0
-15 -7 -22 -15z"/>
<path d="M4748 6239 c-10 -10 -14 -19 -9 -19 5 0 14 7 22 16 7 8 21 13 31 11
10 -3 16 -1 12 4 -9 15 -38 9 -56 -12z"/>
<path d="M4433 6240 c-12 -5 -33 -32 -47 -59 l-25 -51 19 -61 c11 -34 20 -67
20 -74 0 -8 -19 -20 -42 -27 -61 -21 -87 -70 -95 -183 -3 -47 -10 -88 -15 -91
-4 -3 -7 -53 -6 -112 l2 -107 3 98 c3 83 6 97 21 98 14 0 13 2 -3 8 -16 7 -14
9 16 12 43 5 61 1 53 -12 -3 -5 9 -9 25 -9 l31 0 0 -95 c0 -57 -4 -95 -10 -95
-5 0 -10 9 -10 19 0 11 -4 22 -8 25 -4 2 -8 -8 -7 -22 0 -20 -5 -28 -22 -30
-30 -4 -36 -49 -30 -232 3 -80 5 -158 6 -173 1 -43 37 -87 70 -87 40 0 43 8
15 51 -33 53 -32 77 4 77 63 -1 74 -7 67 -38 -6 -26 -3 -30 41 -49 79 -35 99
-22 44 29 -32 29 -38 49 -17 51 26 1 50 8 57 16 4 4 1 98 -6 208 -22 322 -23
339 -17 362 3 16 12 22 27 20 19 -2 21 2 18 47 -4 64 -37 150 -73 191 -29 33
-37 59 -20 69 8 6 20 49 26 96 5 37 -33 116 -62 129 -13 6 -25 11 -26 10 -1 0
-12 -4 -24 -9z m92 -152 c-4 -18 -9 -36 -12 -40 -7 -12 -38 -9 -51 4 -8 8 -12
8 -12 1 0 -6 -9 -13 -19 -16 -15 -4 -22 2 -30 26 -20 55 -17 57 60 57 l71 0
-7 -32z m-46 -118 c17 8 21 8 21 -4 0 -51 -57 -65 -86 -21 -21 33 -10 49 21
29 18 -12 28 -13 44 -4z m-96 -287 c-7 -2 -19 -2 -25 0 -7 3 -2 5 12 5 14 0
19 -2 13 -5z m37 -87 c0 -47 -4 -88 -10 -91 -6 -4 -10 27 -10 84 0 54 4 91 10
91 6 0 10 -35 10 -84z"/>
<path d="M4415 6100 c-3 -5 -1 -10 4 -10 6 0 11 5 11 10 0 6 -2 10 -4 10 -3 0
-8 -4 -11 -10z"/>
<path d="M4485 6100 c-3 -5 1 -10 10 -10 9 0 13 5 10 10 -3 6 -8 10 -10 10 -2
0 -7 -4 -10 -10z"/>
<path d="M4696 6204 c13 -25 22 -50 19 -55 -8 -11 19 -51 28 -42 12 11 7 23
-9 23 -22 0 -12 23 14 35 31 14 27 22 -8 17 -27 -4 -43 11 -22 20 5 2 -4 13
-19 26 l-28 22 25 -46z"/>
<path d="M4928 6243 c12 -2 32 -2 45 0 12 2 2 4 -23 4 -25 0 -35 -2 -22 -4z"/>
<path d="M5268 6243 c7 -3 16 -2 19 1 4 3 -2 6 -13 5 -11 0 -14 -3 -6 -6z"/>
<path d="M5327 6239 c7 -7 15 -10 18 -7 3 3 -2 9 -12 12 -14 6 -15 5 -6 -5z"/>
<path d="M6073 6197 c-46 -28 -83 -54 -83 -57 0 -3 9 -16 19 -29 l18 -24 87
56 c47 31 86 60 86 64 -1 13 -26 43 -36 43 -5 0 -46 -24 -91 -53z m104 17 c3
-10 -132 -104 -149 -104 -3 0 -8 7 -12 15 -4 10 15 29 62 60 66 44 92 51 99
29z"/>
<path d="M4848 6233 c6 -2 18 -2 25 0 6 3 1 5 -13 5 -14 0 -19 -2 -12 -5z"/>
<path d="M5388 6233 c7 -3 16 -2 19 1 4 3 -2 6 -13 5 -11 0 -14 -3 -6 -6z"/>
<path d="M5748 6223 c-9 -10 -25 -37 -37 -60 -20 -40 -20 -45 -6 -90 9 -26 21
-58 27 -71 10 -19 7 -27 -20 -55 -35 -37 -70 -124 -79 -199 -6 -46 -5 -48 19
-48 30 0 42 -29 27 -67 -5 -14 -7 -29 -3 -34 3 -5 -2 -115 -11 -244 -9 -129
-13 -240 -10 -245 3 -6 16 -10 28 -10 52 -1 57 -34 11 -65 -53 -35 -4 -49 61
-18 32 15 36 21 31 44 -7 35 12 51 53 43 37 -8 41 -33 11 -82 -25 -41 -25 -39
7 -45 20 -4 34 2 56 24 24 24 27 34 22 60 -5 20 -3 34 4 39 9 5 10 59 5 203
-4 108 -11 194 -15 191 -5 -2 -5 -12 -2 -22 3 -11 -4 -7 -21 10 -30 31 -32 43
-11 51 10 4 15 26 17 79 l3 73 33 3 32 3 0 83 c0 107 -26 164 -85 185 -22 8
-44 20 -48 25 -5 6 -6 2 -3 -10 4 -14 -2 -28 -18 -43 -32 -30 -71 -23 -78 14
-5 26 9 34 29 14 8 -8 20 -3 43 18 24 21 35 44 46 90 13 57 13 65 -5 106 -28
65 -80 87 -113 50z m-8 -128 c0 -8 5 -15 10 -15 6 0 13 7 16 15 8 20 34 19 50
-2 12 -17 13 -17 19 0 8 19 26 24 21 5 -3 -7 -7 -25 -10 -39 -5 -24 -9 -26
-58 -24 -40 1 -53 6 -59 21 -11 28 -11 54 1 54 6 0 10 -7 10 -15z"/>
<path d="M5777 6070 c-3 -12 0 -20 8 -20 8 0 11 8 8 20 -3 11 -7 20 -8 20 -1
0 -5 -9 -8 -20z"/>
<path d="M4783 6223 c9 -2 23 -2 30 0 6 3 -1 5 -18 5 -16 0 -22 -2 -12 -5z"/>
<path d="M5455 6220 c28 -12 37 -12 30 0 -3 6 -16 10 -28 9 -21 0 -21 -1 -2
-9z"/>
<path d="M4994 6202 c3 -6 1 -12 -5 -14 -7 -2 6 -4 27 -5 21 0 32 2 24 5 -8 2
-23 9 -34 14 -12 7 -16 7 -12 0z"/>
<path d="M5076 6201 c-4 -5 3 -7 14 -4 23 6 26 13 6 13 -8 0 -17 -4 -20 -9z"/>
<path d="M5130 6206 c0 -2 9 -6 20 -9 11 -3 18 -1 14 4 -5 9 -34 13 -34 5z"/>
<path d="M4854 6191 c4 -5 0 -12 -6 -14 -8 -4 -9 -6 -2 -6 6 -1 17 6 24 14 10
12 9 15 -4 15 -10 0 -15 -4 -12 -9z"/>
<path d="M5237 6189 c7 -7 15 -10 18 -7 3 3 -2 9 -12 12 -14 6 -15 5 -6 -5z"/>
<path d="M5368 6193 c7 -3 16 -2 19 1 4 3 -2 6 -13 5 -11 0 -14 -3 -6 -6z"/>
<path d="M5198 6183 c7 -3 16 -2 19 1 4 3 -2 6 -13 5 -11 0 -14 -3 -6 -6z"/>
<path d="M6192 6162 c-15 -12 -21 -24 -17 -35 5 -13 -8 -23 -59 -49 -36 -18
-66 -35 -66 -39 0 -4 8 -17 18 -29 l18 -22 64 32 c59 30 65 31 76 15 10 -13
16 -14 33 -5 12 6 21 15 21 21 0 8 -60 129 -64 129 0 0 -11 -8 -24 -18z m53
-61 c17 -35 21 -52 13 -57 -6 -4 -17 1 -24 10 -11 16 -17 15 -73 -13 -69 -35
-77 -37 -85 -16 -4 11 12 24 59 47 57 28 64 35 59 55 -11 44 25 25 51 -26z"/>
<path d="M6300 6164 c0 -6 7 -19 16 -30 14 -18 14 -18 3 6 -14 31 -19 36 -19
24z"/>
<path d="M3895 6129 c-9 -17 -15 -33 -13 -35 3 -2 12 12 21 31 21 43 13 47 -8
4z"/>
<path d="M4955 6140 c-3 -5 -1 -10 4 -10 6 0 11 5 11 10 0 6 -2 10 -4 10 -3 0
-8 -4 -11 -10z"/>
<path d="M5088 6143 c7 -3 16 -2 19 1 4 3 -2 6 -13 5 -11 0 -14 -3 -6 -6z"/>
<path d="M4765 6120 c-3 -5 -2 -10 4 -10 5 0 13 5 16 10 3 6 2 10 -4 10 -5 0
-13 -4 -16 -10z"/>
<path d="M5445 6120 c4 -6 11 -8 16 -5 14 9 11 15 -7 15 -8 0 -12 -5 -9 -10z"/>
<path d="M3967 6099 c-20 -11 -56 -83 -57 -109 0 -10 32 -29 84 -53 47 -20 89
-37 94 -37 5 0 14 12 21 27 13 27 3 42 -27 43 -9 0 -11 12 -6 48 6 45 4 51
-21 70 -30 24 -60 27 -88 11z m89 -30 c16 -18 16 -24 4 -56 -8 -23 -9 -38 -3
-40 6 -2 19 -10 29 -18 15 -11 16 -16 7 -26 -10 -10 -27 -7 -81 15 -99 40 -96
36 -73 90 29 65 76 80 117 35z"/>
<path d="M3970 6031 c-9 -18 -7 -23 16 -31 31 -12 48 -2 42 26 -5 27 -44 30
-58 5z m45 -1 c3 -6 -1 -13 -10 -16 -19 -8 -30 0 -20 15 8 14 22 14 30 1z"/>
<path d="M4908 6103 c17 -2 47 -2 65 0 17 2 3 4 -33 4 -36 0 -50 -2 -32 -4z"/>
<path d="M5268 6103 c18 -2 45 -2 60 0 15 2 0 4 -33 4 -33 0 -45 -2 -27 -4z"/>
<path d="M4705 6090 c-7 -12 19 -24 37 -17 7 3 3 6 -10 6 -13 1 -20 5 -17 11
3 6 4 10 1 10 -3 0 -8 -5 -11 -10z"/>
<path d="M4823 6093 c9 -2 23 -2 30 0 6 3 -1 5 -18 5 -16 0 -22 -2 -12 -5z"/>
<path d="M5383 6093 c9 -2 25 -2 35 0 9 3 1 5 -18 5 -19 0 -27 -2 -17 -5z"/>
<path d="M5991 6060 c12 -22 24 -38 26 -36 4 4 -37 76 -44 76 -2 0 6 -18 18
-40z"/>
<path d="M4768 6083 c6 -2 18 -2 25 0 6 3 1 5 -13 5 -14 0 -19 -2 -12 -5z"/>
<path d="M5460 6080 c33 -11 70 -12 70 -2 0 4 -21 8 -48 8 -36 1 -41 0 -22 -6z"/>
<path d="M3856 6040 c-22 -56 -19 -65 5 -11 11 24 18 46 15 48 -2 2 -11 -14
-20 -37z"/>
<path d="M4220 6060 c-6 -11 -8 -20 -6 -20 3 0 10 9 16 20 6 11 8 20 6 20 -3
0 -10 -9 -16 -20z"/>
<path d="M4650 6053 c-1 -12 -8 -474 -8 -498 0 -11 -1 -73 -2 -137 l-1 -118
485 0 486 0 0 100 c0 91 2 100 19 100 10 0 21 9 24 20 6 23 -8 27 -17 5 -10
-26 -23 -16 -21 15 1 17 -3 30 -9 30 -6 0 -6 3 -1 9 6 6 8 102 5 243 l-5 233
-477 3 c-263 1 -478 -1 -478 -5z m590 -24 c14 -1 20 -4 13 -6 -8 -3 -6 -14 8
-36 12 -20 19 -50 19 -80 0 -41 -5 -53 -39 -90 -21 -23 -41 -53 -42 -67 -5
-35 -65 -41 -100 -10 -16 15 -20 23 -11 26 6 3 12 10 12 15 0 6 -5 7 -12 3 -7
-4 -8 -3 -4 5 5 7 -3 20 -18 32 -14 11 -30 38 -36 60 -9 33 -8 46 8 82 25 55
69 80 132 72 25 -3 56 -6 70 -6z m-330 -57 c0 -4 -9 -25 -20 -47 -20 -40 -51
-64 -82 -65 -10 0 -18 -4 -18 -9 0 -5 -13 -11 -30 -13 -16 -3 -30 -4 -30 -2 0
1 37 34 82 73 77 68 98 81 98 63z m-140 -199 c0 -8 9 -31 20 -53 20 -38 28
-110 12 -110 -4 0 -23 26 -41 57 -19 31 -46 67 -60 80 -15 12 -20 23 -13 23 7
0 10 5 7 10 -3 6 0 10 8 10 8 0 18 7 21 16 6 15 8 15 26 -1 11 -10 20 -24 20
-32z m679 -128 c1 17 3 17 11 5 6 -9 21 -14 40 -12 l30 4 0 -95 c0 -106 -1
-107 -85 -106 -33 0 -36 2 -20 10 17 8 16 9 -5 4 -59 -14 -101 -17 -134 -11
l-36 7 0 94 0 93 39 7 c21 3 57 4 79 0 29 -4 44 -2 54 9 11 12 14 11 20 -8 6
-20 6 -20 7 -1z m28 3 c-3 -8 -6 -5 -6 6 -1 11 2 17 5 13 3 -3 4 -12 1 -19z"/>
<path d="M5106 5881 c-3 -5 0 -14 8 -20 10 -8 16 -8 25 2 6 8 8 17 4 20 -9 10
-31 9 -37 -2z"/>
<path d="M5175 5881 c-7 -12 12 -24 25 -16 11 7 4 25 -10 25 -5 0 -11 -4 -15
-9z"/>
<path d="M5151 5844 c0 -11 3 -14 6 -6 3 7 2 16 -1 19 -3 4 -6 -2 -5 -13z"/>
<path d="M5478 5453 c7 -3 16 -2 19 1 4 3 -2 6 -13 5 -11 0 -14 -3 -6 -6z"/>
<path d="M6356 6040 c3 -14 11 -32 16 -40 6 -10 7 -7 2 10 -3 14 -11 32 -16
40 -6 10 -7 7 -2 -10z"/>
<path d="M4191 6012 c-17 -31 -13 -40 5 -14 9 13 14 26 11 29 -3 2 -10 -4 -16
-15z"/>
<path d="M6026 5997 c3 -10 9 -15 12 -12 3 3 0 11 -7 18 -10 9 -11 8 -5 -6z"/>
<path d="M6381 5975 c1 -19 18 -51 18 -35 0 8 -4 22 -9 30 -5 8 -9 11 -9 5z"/>
<path d="M4162 5945 c-17 -37 -14 -45 4 -12 9 16 14 31 11 33 -2 2 -9 -7 -15
-21z"/>
<path d="M6096 5963 c-11 -11 10 -56 29 -63 24 -9 44 -62 26 -68 -13 -4 -14
-51 -3 -69 12 -19 181 105 182 133 0 42 -20 52 -128 61 -57 5 -104 7 -106 6z
m190 -28 c40 -9 36 -42 -9 -78 -103 -82 -114 -89 -121 -71 -4 10 0 24 7 32 18
17 2 81 -23 90 -16 6 -30 22 -30 35 0 8 127 2 176 -8z"/>
<path d="M6191 5893 c0 -5 4 -16 8 -27 7 -17 9 -17 37 7 l29 26 -37 1 c-21 0
-38 -3 -37 -7z m39 -7 c0 -3 -4 -8 -10 -11 -5 -3 -10 -1 -10 4 0 6 5 11 10 11
6 0 10 -2 10 -4z"/>
<path d="M6050 5945 c0 -5 5 -17 10 -25 5 -8 10 -10 10 -5 0 6 -5 17 -10 25
-5 8 -10 11 -10 5z"/>
<path d="M3880 5904 c-6 -14 -10 -29 -10 -33 0 -11 192 -63 200 -54 4 4 11 18
14 30 6 20 0 24 -81 48 -48 14 -94 28 -101 30 -7 3 -17 -7 -22 -21z m115 -20
c69 -21 80 -27 72 -47 -5 -13 -18 -12 -88 9 -45 13 -84 26 -87 28 -11 12 9 37
25 32 10 -2 45 -12 78 -22z"/>
<path d="M3811 5904 c0 -11 3 -14 6 -6 3 7 2 16 -1 19 -3 4 -6 -2 -5 -13z"/>
<path d="M6401 5910 c0 -8 4 -24 9 -35 5 -13 9 -14 9 -5 0 8 -4 24 -9 35 -5
13 -9 14 -9 5z"/>
<path d="M6422 5830 c0 -14 2 -19 5 -12 2 6 2 18 0 25 -3 6 -5 1 -5 -13z"/>
<path d="M3855 5796 c-14 -40 -9 -50 23 -57 41 -8 43 -10 35 -37 -4 -18 -13
-22 -45 -22 -38 0 -39 -1 -36 -32 l3 -33 95 -11 c52 -6 98 -9 103 -7 4 2 7 17
7 34 0 23 -4 29 -22 29 -34 0 -50 15 -46 41 3 21 7 24 40 21 33 -3 38 0 44 23
3 14 4 28 1 31 -3 3 -49 11 -102 18 -69 9 -98 10 -100 2z m163 -23 c13 -3 22
-13 22 -24 0 -17 -5 -18 -39 -13 -38 6 -38 6 -45 -31 -8 -43 2 -55 47 -55 21
0 27 -5 27 -21 0 -20 -3 -21 -67 -15 -107 11 -125 16 -121 34 3 13 13 16 40
14 35 -3 37 -1 43 32 9 44 1 56 -36 56 -23 0 -29 4 -29 21 0 20 3 21 68 14 37
-3 77 -9 90 -12z"/>
<path d="M6101 5794 c0 -11 3 -14 6 -6 3 7 2 16 -1 19 -3 4 -6 -2 -5 -13z"/>
<path d="M6432 5780 c0 -14 2 -19 5 -12 2 6 2 18 0 25 -3 6 -5 1 -5 -13z"/>
<path d="M3781 5774 c0 -11 3 -14 6 -6 3 7 2 16 -1 19 -3 4 -6 -2 -5 -13z"/>
<path d="M6262 5733 c-5 -10 -12 -30 -16 -45 -10 -41 -27 -34 -24 10 3 32 0
37 -21 40 -28 4 -41 -12 -41 -51 0 -102 116 -132 144 -37 9 33 10 34 14 9 3
-25 43 -55 56 -42 12 12 6 89 -10 111 -20 28 -88 32 -102 5z m93 -17 c17 -26
17 -77 0 -77 -5 0 -11 9 -13 20 -2 11 -10 25 -17 31 -12 10 -18 4 -34 -32 -10
-25 -26 -48 -34 -51 -45 -17 -94 39 -82 94 9 40 29 31 33 -14 2 -29 8 -37 22
-37 14 0 22 11 30 39 6 22 16 42 23 44 29 12 57 6 72 -17z"/>
<path d="M6442 5710 c0 -14 2 -19 5 -12 2 6 2 18 0 25 -3 6 -5 1 -5 -13z"/>
<path d="M5661 5574 c0 -11 3 -14 6 -6 3 7 2 16 -1 19 -3 4 -6 -2 -5 -13z"/>
<path d="M3930 5540 c0 -5 5 -10 10 -10 6 0 10 5 10 10 0 6 -4 10 -10 10 -5 0
-10 -4 -10 -10z"/>
<path d="M4594 5539 c-8 -14 21 -43 35 -35 7 5 7 13 -2 26 -13 23 -23 25 -33
9z"/>
<path d="M6280 5540 c0 -5 5 -10 10 -10 6 0 10 5 10 10 0 6 -4 10 -10 10 -5 0
-10 -4 -10 -10z"/>
<path d="M4275 5480 c-19 -8 -19 -9 3 -9 12 -1 22 4 22 9 0 6 -1 10 -2 9 -2 0
-12 -4 -23 -9z"/>
<path d="M3890 5460 c-9 -6 -10 -10 -3 -10 6 0 15 5 18 10 8 12 4 12 -15 0z"/>
<path d="M6196 5446 c-16 -7 -25 -15 -20 -18 5 -3 23 3 39 13 34 21 24 24 -19
5z"/>
<path d="M3840 5440 c-8 -5 -11 -12 -8 -16 4 -3 14 1 23 10 18 17 9 21 -15 6z"/>
<path d="M6375 5436 c11 -8 24 -12 29 -8 5 3 1 9 -10 13 -31 12 -39 10 -19 -5z"/>
<path d="M4040 5429 c0 -5 5 -7 10 -4 6 3 10 8 10 11 0 2 -4 4 -10 4 -5 0 -10
-5 -10 -11z"/>
<path d="M6442 5400 c0 -14 2 -19 5 -12 2 6 2 18 0 25 -3 6 -5 1 -5 -13z"/>
<path d="M3781 5334 c0 -11 3 -14 6 -6 3 7 2 16 -1 19 -3 4 -6 -2 -5 -13z"/>
<path d="M6432 5330 c0 -14 2 -19 5 -12 2 6 2 18 0 25 -3 6 -5 1 -5 -13z"/>
<path d="M6280 5330 c0 -5 5 -10 11 -10 5 0 7 5 4 10 -3 6 -8 10 -11 10 -2 0
-4 -4 -4 -10z"/>
<path d="M3791 5284 c0 -11 3 -14 6 -6 3 7 2 16 -1 19 -3 4 -6 -2 -5 -13z"/>
<path d="M6422 5280 c0 -14 2 -19 5 -12 2 6 2 18 0 25 -3 6 -5 1 -5 -13z"/>
<path d="M6140 5269 c-6 -10 -10 -24 -10 -31 0 -17 188 -74 201 -61 5 5 10 19
11 32 3 21 -5 25 -95 51 -93 26 -98 26 -107 9z m105 -22 c56 -16 81 -28 83
-40 5 -23 -13 -22 -104 5 -57 16 -74 25 -74 40 0 22 -3 22 95 -5z"/>
<path d="M3801 5240 c0 -8 4 -24 9 -35 5 -13 9 -14 9 -5 0 8 -4 24 -9 35 -5
13 -9 14 -9 5z"/>
<path d="M3982 5234 c-15 -10 -22 -25 -22 -49 0 -19 -4 -37 -10 -40 -6 -4 -10
8 -10 29 0 33 -2 36 -30 36 -29 0 -30 -2 -30 -44 0 -76 63 -119 118 -80 16 11
22 25 22 55 0 21 5 39 10 39 6 0 10 -11 10 -24 0 -17 7 -25 25 -28 31 -6 35
-2 35 39 0 65 -67 103 -118 67z m93 -27 c19 -27 19 -67 1 -67 -8 0 -17 11 -20
25 -4 14 -11 25 -16 25 -6 0 -13 1 -17 3 -5 1 -10 -18 -13 -43 -5 -48 -33 -73
-71 -63 -38 10 -69 113 -34 113 9 0 15 -9 15 -22 0 -32 15 -52 34 -45 9 4 16
18 16 35 0 66 69 91 105 39z"/>
<path d="M6393 5177 c-12 -39 -20 -73 -18 -75 2 -2 14 28 26 67 11 40 19 74
17 76 -2 3 -14 -28 -25 -68z"/>
<path d="M6068 5215 c-3 -11 -9 -29 -13 -40 -3 -11 1 -7 10 8 9 16 15 33 12
40 -2 6 -6 3 -9 -8z"/>
<path d="M4150 5195 c0 -5 5 -17 10 -25 5 -8 10 -10 10 -5 0 6 -5 17 -10 25
-5 8 -10 11 -10 5z"/>
<path d="M4643 5174 c-7 -18 1 -124 10 -124 4 0 221 0 482 0 l475 0 0 68 0 67
-481 0 c-344 0 -483 -3 -486 -11z"/>
<path d="M3821 5170 c0 -8 6 -28 14 -45 17 -39 18 -21 0 25 -7 19 -14 28 -14
20z"/>
<path d="M6106 5155 c-9 -13 -16 -27 -16 -29 0 -3 18 -15 40 -26 22 -11 40
-22 40 -25 0 -2 -27 -9 -59 -16 -45 -8 -62 -17 -72 -35 -8 -15 -9 -28 -3 -33
14 -14 158 -91 170 -91 9 0 34 40 34 54 0 2 -18 11 -40 21 -22 10 -40 21 -40
25 0 4 21 11 48 15 57 8 92 29 92 55 0 15 -22 31 -89 65 l-89 44 -16 -24z
m104 -36 c70 -36 79 -43 70 -59 -11 -20 -23 -25 -90 -35 -76 -12 -79 -20 -22
-49 52 -26 62 -39 41 -51 -14 -9 -159 62 -159 78 0 26 17 35 88 47 39 7 72 16
72 20 0 4 -22 17 -50 30 -27 13 -50 25 -50 26 0 8 13 34 17 34 2 0 40 -18 83
-41z"/>
<path d="M4170 5146 c0 -11 30 -66 36 -66 2 0 -3 15 -12 33 -19 36 -24 44 -24
33z"/>
<path d="M6027 5115 c-9 -19 -15 -35 -12 -35 7 0 37 61 33 66 -3 2 -12 -12
-21 -31z"/>
<path d="M4096 5087 c-10 -7 -16 -22 -14 -32 2 -14 -12 -27 -59 -54 -35 -19
-63 -38 -63 -42 0 -4 8 -17 18 -29 l18 -22 66 36 c54 30 67 34 72 21 7 -19 30
-19 46 0 9 11 5 26 -21 75 -17 33 -35 60 -38 60 -4 0 -15 -6 -25 -13z m52 -52
c12 -25 22 -50 22 -55 0 -16 -27 -12 -34 5 -4 12 -17 8 -67 -20 -69 -39 -75
-41 -82 -21 -7 17 1 24 71 61 52 28 61 38 42 50 -6 4 -8 11 -5 16 13 20 32 7
53 -36z"/>
<path d="M3850 5085 c0 -5 5 -17 10 -25 5 -8 10 -10 10 -5 0 6 -5 17 -10 25
-5 8 -10 11 -10 5z"/>
<path d="M6356 5075 c-9 -26 -7 -32 5 -12 6 10 9 21 6 23 -2 3 -7 -2 -11 -11z"/>
<path d="M4230 5030 c6 -11 13 -20 16 -20 2 0 0 9 -6 20 -6 11 -13 20 -16 20
-2 0 0 -9 6 -20z"/>
<path d="M3870 5036 c0 -10 70 -146 75 -146 3 0 -11 33 -31 73 -38 74 -44 85
-44 73z"/>
<path d="M6332 5015 c-17 -37 -14 -45 4 -12 9 16 14 31 11 33 -2 2 -9 -7 -15
-21z"/>
<path d="M4290 4940 c11 -16 26 -33 32 -36 7 -4 -1 9 -16 29 -34 44 -46 50
-16 7z"/>
<path d="M5919 4938 c-13 -18 -50 -62 -83 -98 l-60 -65 56 54 c52 50 126 141
114 141 -2 0 -15 -15 -27 -32z"/>
<path d="M4174 4918 c-92 -68 -111 -107 -83 -161 38 -69 86 -73 168 -11 64 48
67 53 51 85 -15 26 -20 25 -78 -21 -54 -43 -76 -49 -86 -24 -6 15 -1 21 79 87
29 25 30 25 11 46 -24 26 -27 26 -62 -1z m53 -14 c2 -6 -19 -28 -46 -50 -53
-41 -61 -62 -36 -88 19 -19 38 -12 93 32 39 31 45 33 59 20 13 -14 7 -20 -47
-62 -34 -25 -66 -46 -71 -46 -23 0 -62 27 -75 51 -23 46 -17 65 39 113 50 44
76 53 84 30z"/>
<path d="M4642 4863 l3 -68 483 -3 482 -2 0 70 0 70 -485 0 -486 0 3 -67z"/>
<path d="M5943 4883 c-24 -25 -42 -50 -41 -54 2 -4 39 -35 82 -68 75 -57 81
-60 98 -44 22 20 23 42 3 49 -22 9 -9 22 17 17 31 -6 80 43 58 57 -8 5 -30 10
-47 10 -23 0 -33 5 -33 15 0 23 -46 65 -71 65 -14 0 -39 -18 -66 -47z m105 15
c7 -7 12 -24 12 -38 0 -23 4 -26 37 -28 42 -3 48 -6 38 -21 -3 -6 -30 -11 -58
-11 l-52 -1 33 -27 c30 -25 32 -30 18 -41 -13 -11 -26 -4 -86 44 -77 61 -76
56 -26 113 21 24 65 29 84 10z"/>
<path d="M5980 4860 c-13 -8 -12 -13 8 -32 19 -20 24 -21 32 -8 22 33 -7 62
-40 40z m31 -13 c-1 -12 -15 -9 -19 4 -3 6 1 10 8 8 6 -3 11 -8 11 -12z"/>
<path d="M4380 4835 c30 -30 57 -55 59 -55 3 0 -19 25 -49 55 -30 30 -57 55
-59 55 -3 0 19 -25 49 -55z"/>
<path d="M6245 4844 c-9 -15 -12 -23 -6 -20 11 7 35 46 28 46 -3 0 -12 -12
-22 -26z"/>
<path d="M3970 4840 c6 -11 13 -20 16 -20 2 0 0 9 -6 20 -6 11 -13 20 -16 20
-2 0 0 -9 6 -20z"/>
<path d="M4021 4765 c18 -25 41 -53 52 -62 11 -10 -2 10 -28 45 -56 72 -72 83
-24 17z"/>
<path d="M6152 4718 c-40 -51 -52 -71 -28 -44 43 47 111 136 104 136 -2 0 -36
-42 -76 -92z"/>
<path d="M5821 4754 c-23 -20 -41 -40 -41 -44 0 -13 122 -145 134 -145 16 0
86 61 86 74 0 5 -7 17 -16 26 -15 15 -18 15 -35 -1 -11 -10 -22 -14 -26 -11
-4 4 2 13 12 21 11 8 16 19 12 30 -10 25 -36 30 -57 11 -24 -22 -26 -9 -3 17
13 14 15 23 7 35 -18 28 -31 26 -73 -13z m62 9 c4 -3 -3 -17 -14 -29 -18 -20
-20 -26 -9 -39 12 -14 15 -14 30 0 9 8 22 15 28 15 17 0 15 -30 -3 -36 -8 -4
-15 -13 -15 -20 0 -23 29 -28 49 -10 14 12 21 14 26 6 7 -12 -41 -70 -57 -70
-10 0 -111 106 -117 122 -4 12 49 68 64 68 7 0 15 -3 18 -7z"/>
<path d="M4459 4766 c15 -18 101 -80 101 -73 0 2 -26 23 -57 47 -32 24 -52 35
-44 26z"/>
<path d="M5725 4744 c-30 -27 -32 -31 -9 -16 28 19 62 53 53 52 -2 -1 -22 -17
-44 -36z"/>
<path d="M4312 4707 c-81 -103 -80 -101 -46 -131 45 -39 80 -51 122 -40 49 12
86 65 78 112 -6 39 -15 52 -67 92 l-37 30 -50 -63z m113 -6 c37 -40 39 -89 6
-125 -44 -46 -106 -41 -155 12 -20 23 -20 24 42 104 49 63 54 64 107 9z"/>
<path d="M4342 4658 c-18 -23 -32 -45 -32 -49 0 -15 40 -30 61 -24 47 15 60
83 20 104 -14 8 -24 2 -49 -31z m56 -10 c3 -29 -30 -60 -54 -51 -19 7 -18 19
8 54 26 34 42 33 46 -3z"/>
<path d="M5643 4689 c-35 -22 -46 -37 -15 -20 22 13 58 40 52 41 -3 0 -20 -10
-37 -21z"/>
<path d="M4165 4601 c33 -34 74 -72 90 -83 34 -24 37 -27 -70 72 -78 73 -79
73 -20 11z"/>
<path d="M5669 4641 l-22 -18 53 -87 c32 -53 58 -85 66 -82 26 10 94 57 94 64
0 5 -6 17 -14 27 -13 18 -15 18 -38 3 -24 -16 -24 -15 -62 43 -21 33 -42 61
-46 64 -4 3 -18 -3 -31 -14z m67 -61 c35 -57 55 -72 69 -50 9 15 35 12 35 -4
0 -13 -61 -56 -78 -56 -13 1 -93 143 -88 156 10 25 24 14 62 -46z"/>
<path d="M4489 4548 c-49 -86 -51 -92 -34 -104 10 -8 24 -14 31 -14 10 0 57
74 110 170 1 3 -11 13 -26 22 l-29 17 -52 -91z m79 60 c14 -18 -73 -169 -94
-161 -8 3 -14 9 -14 14 0 13 84 159 91 159 4 0 11 -6 17 -12z"/>
<path d="M6000 4559 c-69 -63 -158 -127 -252 -179 -32 -18 -58 -34 -58 -37 0
-7 127 65 185 105 77 54 200 160 193 167 -2 1 -32 -24 -68 -56z"/>
<path d="M5469 4606 c-3 -3 -43 -16 -89 -30 -47 -14 -77 -25 -68 -25 20 -1
178 48 178 54 0 6 -15 6 -21 1z"/>
<path d="M4785 4585 c17 -8 37 -14 45 -14 8 0 -1 7 -20 14 -46 18 -64 17 -25
0z"/>
<path d="M4607 4507 c-34 -90 -34 -102 2 -138 24 -23 38 -29 74 -29 53 0 59 6
97 97 27 62 28 69 13 81 -32 24 -47 13 -73 -50 -15 -39 -32 -64 -43 -66 -29
-6 -30 25 -4 90 26 65 25 69 -18 82 -18 5 -24 -4 -48 -67z m67 44 c4 -5 -3
-31 -14 -57 -28 -64 -24 -98 13 -102 25 -3 30 2 57 62 22 49 33 64 45 60 21
-8 19 -19 -18 -94 -32 -65 -32 -65 -74 -64 -83 1 -104 46 -67 139 24 60 44 79
58 56z"/>
<path d="M4865 4560 c11 -5 29 -8 40 -8 16 0 15 2 -5 8 -34 11 -60 11 -35 0z"/>
<path d="M5511 4559 c-24 -9 -24 -11 -18 -115 2 -58 7 -107 10 -110 11 -11 57
17 57 35 0 23 52 45 68 29 11 -11 72 -1 72 11 0 13 -141 161 -153 160 -7 0
-23 -5 -36 -10z m156 -151 c-10 -5 -23 -4 -36 3 -26 17 -79 -5 -83 -34 -2 -12
-11 -23 -20 -25 -16 -3 -18 7 -18 97 0 130 10 134 104 38 57 -58 66 -71 53
-79z"/>
<path d="M5544 4484 c3 -9 6 -24 6 -35 0 -21 8 -23 29 -10 12 8 12 13 -3 35
-18 28 -42 36 -32 10z"/>
<path d="M4943 4543 c9 -2 23 -2 30 0 6 3 -1 5 -18 5 -16 0 -22 -2 -12 -5z"/>
<path d="M5248 4543 c6 -2 18 -2 25 0 6 3 1 5 -13 5 -14 0 -19 -2 -12 -5z"/>
<path d="M5063 4533 c32 -2 81 -2 110 0 29 2 3 3 -58 3 -60 0 -84 -1 -52 -3z"/>
<path d="M5313 4503 c-70 -14 -67 -133 3 -133 10 0 25 -4 33 -9 19 -12 -3 -23
-33 -15 -21 5 -26 2 -32 -20 -8 -35 -1 -41 53 -41 37 0 49 5 70 29 18 21 23
36 18 55 -8 33 -40 61 -71 61 -13 0 -24 5 -24 11 0 7 11 9 26 6 20 -4 27 1 35
21 5 13 8 26 6 28 -7 7 -62 12 -84 7z m65 -25 c-3 -7 -15 -15 -29 -18 -33 -8
-39 -40 -7 -40 58 0 89 -61 51 -102 -16 -18 -87 -26 -97 -10 -9 15 9 27 39 27
23 0 30 4 30 20 0 14 -9 21 -33 26 -19 4 -38 11 -44 17 -17 17 -12 64 8 79 23
17 87 18 82 1z"/>
<path d="M4296 4489 c6 -11 137 -100 174 -119 14 -7 23 -10 20 -7 -12 12 -199
134 -194 126z"/>
<path d="M4871 4478 c-15 -40 -53 -180 -49 -183 2 -2 16 -5 32 -7 26 -3 30 1
41 37 l11 40 15 -44 c7 -25 20 -46 26 -49 7 -2 23 14 35 35 l23 38 3 -36 c2
-28 8 -38 25 -43 50 -13 50 -13 43 96 -4 56 -9 105 -12 110 -3 4 -16 8 -29 8
-16 0 -30 -12 -47 -41 l-25 -42 -11 45 c-9 34 -18 47 -34 52 -35 9 -38 8 -47
-16z m70 -53 c7 -30 15 -55 18 -55 3 0 19 23 34 51 19 33 34 49 45 47 14 -3
18 -20 22 -96 4 -83 3 -92 -12 -92 -20 0 -33 38 -25 75 8 44 -9 36 -37 -15
-15 -28 -31 -50 -35 -50 -5 0 -16 28 -26 63 l-18 62 -17 -55 c-11 -33 -24 -56
-34 -58 -21 -4 -20 5 6 99 18 69 24 79 44 79 19 0 24 -8 35 -55z"/>
<path d="M4550 4330 c8 -5 20 -10 25 -10 6 0 3 5 -5 10 -8 5 -19 10 -25 10 -5
0 -3 -5 5 -10z"/>
<path d="M5655 4330 c-3 -6 1 -7 9 -4 18 7 21 14 7 14 -6 0 -13 -4 -16 -10z"/>
<path d="M5490 4275 c-19 -7 -28 -13 -20 -13 8 0 31 6 50 13 19 7 28 13 20 13
-8 0 -31 -6 -50 -13z"/>
<path d="M4778 4253 c7 -3 16 -2 19 1 4 3 -2 6 -13 5 -11 0 -14 -3 -6 -6z"/>
<path d="M5428 4253 c7 -3 16 -2 19 1 4 3 -2 6 -13 5 -11 0 -14 -3 -6 -6z"/>
<path d="M4818 4243 c7 -3 16 -2 19 1 4 3 -2 6 -13 5 -11 0 -14 -3 -6 -6z"/>
<path d="M5388 4243 c7 -3 16 -2 19 1 4 3 -2 6 -13 5 -11 0 -14 -3 -6 -6z"/>
<path d="M4863 4233 c9 -2 23 -2 30 0 6 3 -1 5 -18 5 -16 0 -22 -2 -12 -5z"/>
<path d="M5333 4233 c9 -2 23 -2 30 0 6 3 -1 5 -18 5 -16 0 -22 -2 -12 -5z"/>
<path d="M4923 4223 c9 -2 25 -2 35 0 9 3 1 5 -18 5 -19 0 -27 -2 -17 -5z"/>
<path d="M5263 4223 c9 -2 25 -2 35 0 9 3 1 5 -18 5 -19 0 -27 -2 -17 -5z"/>
<path d="M5048 4213 c34 -2 90 -2 125 0 34 2 6 3 -63 3 -69 0 -97 -1 -62 -3z"/>
<path d="M3231 3644 c0 -11 3 -14 6 -6 3 7 2 16 -1 19 -3 4 -6 -2 -5 -13z"/>
<path d="M3316 3442 c-3 -5 1 -9 9 -9 8 0 12 4 9 9 -3 4 -7 8 -9 8 -2 0 -6 -4
-9 -8z"/>
</g>
</svg>
